<svg width="1728" height="14" viewBox="0 0 1728 14" fill="none" xmlns="http://www.w3.org/2000/svg">
<rect x="10" y="6" width="2" height="2" rx="1" fill="#D9D9D9"/>
<rect x="24.4576" y="6" width="2" height="2" rx="1" fill="#D9D9D9"/>
<rect x="38.9153" y="6" width="2" height="2" rx="1" fill="#D9D9D9"/>
<rect x="53.3729" y="6" width="2" height="2" rx="1" fill="#D9D9D9"/>
<rect x="67.8305" y="6" width="2" height="2" rx="1" fill="#D9D9D9"/>
<rect x="82.2881" y="6" width="2" height="2" rx="1" fill="#D9D9D9"/>
<rect x="96.7457" y="6" width="2" height="2" rx="1" fill="#D9D9D9"/>
<rect x="111.203" y="6" width="2" height="2" rx="1" fill="#D9D9D9"/>
<rect x="125.661" y="6" width="2" height="2" rx="1" fill="#D9D9D9"/>
<rect x="140.119" y="6" width="2" height="2" rx="1" fill="#D9D9D9"/>
<rect x="154.576" y="6" width="2" height="2" rx="1" fill="#D9D9D9"/>
<rect x="169.034" y="6" width="2" height="2" rx="1" fill="#D9D9D9"/>
<rect x="183.491" y="6" width="2" height="2" rx="1" fill="#D9D9D9"/>
<rect x="197.949" y="6" width="2" height="2" rx="1" fill="#D9D9D9"/>
<rect x="212.407" y="6" width="2" height="2" rx="1" fill="#D9D9D9"/>
<rect x="226.864" y="6" width="2" height="2" rx="1" fill="#D9D9D9"/>
<rect x="241.322" y="6" width="2" height="2" rx="1" fill="#D9D9D9"/>
<rect x="255.78" y="6" width="2" height="2" rx="1" fill="#D9D9D9"/>
<rect x="270.237" y="6" width="2" height="2" rx="1" fill="#D9D9D9"/>
<rect x="284.695" y="6" width="2" height="2" rx="1" fill="#D9D9D9"/>
<rect x="299.153" y="6" width="2" height="2" rx="1" fill="#D9D9D9"/>
<rect x="313.61" y="6" width="2" height="2" rx="1" fill="#D9D9D9"/>
<rect x="328.068" y="6" width="2" height="2" rx="1" fill="#D9D9D9"/>
<rect x="342.526" y="6" width="2" height="2" rx="1" fill="#D9D9D9"/>
<rect x="356.983" y="6" width="2" height="2" rx="1" fill="#D9D9D9"/>
<rect x="371.441" y="6" width="2" height="2" rx="1" fill="#D9D9D9"/>
<rect x="385.898" y="6" width="2" height="2" rx="1" fill="#D9D9D9"/>
<rect x="400.356" y="6" width="2" height="2" rx="1" fill="#D9D9D9"/>
<rect x="414.814" y="6" width="2" height="2" rx="1" fill="#D9D9D9"/>
<rect x="429.271" y="6" width="2" height="2" rx="1" fill="#D9D9D9"/>
<rect x="443.729" y="6" width="2" height="2" rx="1" fill="#D9D9D9"/>
<rect x="458.187" y="6" width="2" height="2" rx="1" fill="#D9D9D9"/>
<rect x="472.644" y="6" width="2" height="2" rx="1" fill="#D9D9D9"/>
<rect x="487.102" y="6" width="2" height="2" rx="1" fill="#D9D9D9"/>
<rect x="501.56" y="6" width="2" height="2" rx="1" fill="#D9D9D9"/>
<rect x="516.017" y="6" width="2" height="2" rx="1" fill="#D9D9D9"/>
<rect x="530.475" y="6" width="2" height="2" rx="1" fill="#D9D9D9"/>
<rect x="544.932" y="6" width="2" height="2" rx="1" fill="#D9D9D9"/>
<rect x="559.39" y="6" width="2" height="2" rx="1" fill="#D9D9D9"/>
<rect x="573.848" y="6" width="2" height="2" rx="1" fill="#D9D9D9"/>
<rect x="588.305" y="6" width="2" height="2" rx="1" fill="#D9D9D9"/>
<rect x="602.763" y="6" width="2" height="2" rx="1" fill="#D9D9D9"/>
<rect x="617.221" y="6" width="2" height="2" rx="1" fill="#D9D9D9"/>
<rect x="631.678" y="6" width="2" height="2" rx="1" fill="#D9D9D9"/>
<rect x="646.136" y="6" width="2" height="2" rx="1" fill="#D9D9D9"/>
<rect x="660.594" y="6" width="2" height="2" rx="1" fill="#D9D9D9"/>
<rect x="675.051" y="6" width="2" height="2" rx="1" fill="#D9D9D9"/>
<rect x="689.509" y="6" width="2" height="2" rx="1" fill="#D9D9D9"/>
<rect x="703.967" y="6" width="2" height="2" rx="1" fill="#D9D9D9"/>
<rect x="718.424" y="6" width="2" height="2" rx="1" fill="#D9D9D9"/>
<rect x="732.882" y="6" width="2" height="2" rx="1" fill="#D9D9D9"/>
<rect x="747.339" y="6" width="2" height="2" rx="1" fill="#D9D9D9"/>
<rect x="761.797" y="6" width="2" height="2" rx="1" fill="#D9D9D9"/>
<rect x="776.255" y="6" width="2" height="2" rx="1" fill="#D9D9D9"/>
<rect x="790.712" y="6" width="2" height="2" rx="1" fill="#D9D9D9"/>
<rect x="805.17" y="6" width="2" height="2" rx="1" fill="#D9D9D9"/>
<rect x="819.628" y="6" width="2" height="2" rx="1" fill="#D9D9D9"/>
<rect x="834.085" y="6" width="2" height="2" rx="1" fill="#D9D9D9"/>
<rect x="848.543" y="6" width="2" height="2" rx="1" fill="#D9D9D9"/>
<rect x="863" y="6" width="2" height="2" rx="1" fill="#D9D9D9"/>
<rect x="877.458" y="6" width="2" height="2" rx="1" fill="#D9D9D9"/>
<rect x="891.916" y="6" width="2" height="2" rx="1" fill="#D9D9D9"/>
<rect x="906.374" y="6" width="2" height="2" rx="1" fill="#D9D9D9"/>
<rect x="920.831" y="6" width="2" height="2" rx="1" fill="#D9D9D9"/>
<rect x="935.289" y="6" width="2" height="2" rx="1" fill="#D9D9D9"/>
<rect x="949.746" y="6" width="2" height="2" rx="1" fill="#D9D9D9"/>
<rect x="964.204" y="6" width="2" height="2" rx="1" fill="#D9D9D9"/>
<rect x="978.662" y="6" width="2" height="2" rx="1" fill="#D9D9D9"/>
<rect x="993.119" y="6" width="2" height="2" rx="1" fill="#D9D9D9"/>
<rect x="1007.58" y="6" width="2" height="2" rx="1" fill="#D9D9D9"/>
<rect x="1022.03" y="6" width="2" height="2" rx="1" fill="#D9D9D9"/>
<rect x="1036.49" y="6" width="2" height="2" rx="1" fill="#D9D9D9"/>
<rect x="1050.95" y="6" width="2" height="2" rx="1" fill="#D9D9D9"/>
<rect x="1065.41" y="6" width="2" height="2" rx="1" fill="#D9D9D9"/>
<rect x="1079.87" y="6" width="2" height="2" rx="1" fill="#D9D9D9"/>
<rect x="1094.32" y="6" width="2" height="2" rx="1" fill="#D9D9D9"/>
<rect x="1108.78" y="6" width="2" height="2" rx="1" fill="#D9D9D9"/>
<rect x="1123.24" y="6" width="2" height="2" rx="1" fill="#D9D9D9"/>
<rect x="1137.7" y="6" width="2" height="2" rx="1" fill="#D9D9D9"/>
<rect x="1152.15" y="6" width="2" height="2" rx="1" fill="#D9D9D9"/>
<rect x="1166.61" y="6" width="2" height="2" rx="1" fill="#D9D9D9"/>
<rect x="1181.07" y="6" width="2" height="2" rx="1" fill="#D9D9D9"/>
<rect x="1195.53" y="6" width="2" height="2" rx="1" fill="#D9D9D9"/>
<rect x="1209.98" y="6" width="2" height="2" rx="1" fill="#D9D9D9"/>
<rect x="1224.44" y="6" width="2" height="2" rx="1" fill="#D9D9D9"/>
<rect x="1238.9" y="6" width="2" height="2" rx="1" fill="#D9D9D9"/>
<rect x="1253.36" y="6" width="2" height="2" rx="1" fill="#D9D9D9"/>
<rect x="1267.81" y="6" width="2" height="2" rx="1" fill="#D9D9D9"/>
<rect x="1282.27" y="6" width="2" height="2" rx="1" fill="#D9D9D9"/>
<rect x="1296.73" y="6" width="2" height="2" rx="1" fill="#D9D9D9"/>
<rect x="1311.19" y="6" width="2" height="2" rx="1" fill="#D9D9D9"/>
<rect x="1325.65" y="6" width="2" height="2" rx="1" fill="#D9D9D9"/>
<rect x="1340.1" y="6" width="2" height="2" rx="1" fill="#D9D9D9"/>
<rect x="1354.56" y="6" width="2" height="2" rx="1" fill="#D9D9D9"/>
<rect x="1369.02" y="6" width="2" height="2" rx="1" fill="#D9D9D9"/>
<rect x="1383.48" y="6" width="2" height="2" rx="1" fill="#D9D9D9"/>
<rect x="1397.93" y="6" width="2" height="2" rx="1" fill="#D9D9D9"/>
<rect x="1412.39" y="6" width="2" height="2" rx="1" fill="#D9D9D9"/>
<rect x="1426.85" y="6" width="2" height="2" rx="1" fill="#D9D9D9"/>
<rect x="1441.31" y="6" width="2" height="2" rx="1" fill="#D9D9D9"/>
<rect x="1455.76" y="6" width="2" height="2" rx="1" fill="#D9D9D9"/>
<rect x="1470.22" y="6" width="2" height="2" rx="1" fill="#D9D9D9"/>
<rect x="1484.68" y="6" width="2" height="2" rx="1" fill="#D9D9D9"/>
<rect x="1499.14" y="6" width="2" height="2" rx="1" fill="#D9D9D9"/>
<rect x="1513.59" y="6" width="2" height="2" rx="1" fill="#D9D9D9"/>
<rect x="1528.05" y="6" width="2" height="2" rx="1" fill="#D9D9D9"/>
<rect x="1542.51" y="6" width="2" height="2" rx="1" fill="#D9D9D9"/>
<rect x="1556.97" y="6" width="2" height="2" rx="1" fill="#D9D9D9"/>
<rect x="1571.42" y="6" width="2" height="2" rx="1" fill="#D9D9D9"/>
<rect x="1585.88" y="6" width="2" height="2" rx="1" fill="#D9D9D9"/>
<rect x="1600.34" y="6" width="2" height="2" rx="1" fill="#D9D9D9"/>
<rect x="1614.8" y="6" width="2" height="2" rx="1" fill="#D9D9D9"/>
<rect x="1629.26" y="6" width="2" height="2" rx="1" fill="#D9D9D9"/>
<rect x="1643.71" y="6" width="2" height="2" rx="1" fill="#D9D9D9"/>
<rect x="1658.17" y="6" width="2" height="2" rx="1" fill="#D9D9D9"/>
<rect x="1672.63" y="6" width="2" height="2" rx="1" fill="#D9D9D9"/>
<rect x="1687.09" y="6" width="2" height="2" rx="1" fill="#D9D9D9"/>
<rect x="1701.54" y="6" width="2" height="2" rx="1" fill="#D9D9D9"/>
<rect x="1716" y="6" width="2" height="2" rx="1" fill="#D9D9D9"/>
</svg>
